#!OML:ASF F:\VICON\USERDATA\INSTALL\rory3\rory3.ASF
:FULLY-SPECIFIED
:DEGREES
49
root 0.313824062635395 17.68756448246279 12.30398898291486 -0.21408728575480618 -4.550960676954823 -6.396528607977956
lfemur -25.968596466581207 -4.162883057282389 -10.717780198811928
ltibia 16.541674105064033
lfoot -3.7569574857614936 -3.243965688118805
ltoes -5.345218629606833
rfemur 8.104231751166703 5.389540537100862 34.796161012724994
rtibia 28.231873278119895
rfoot -16.055464909322648 -4.56736553183158
rtoes -3.807935022215365
lowerback nan 1.9961070974561521 6.049883577280637
upperback 0.1493220046826917 3.8442724405273294 2.6395391642006625
thorax -4.76951706435121 1.7126176857508704 -1.7633107265196322
lowerneck -15.778500473346458 -3.2168077961887422 -1.074821200668506
upperneck 20.320138830294383 -4.872049181120519 0.7954045122634739
head 9.112444290244284 -2.10438861339495 -0.05105131837975858
lclavicle -4.632223508325379e-15 -2.6613651085401886e-15
lhumerus -37.59858059612116 5.9028303489697125 82.66634321781338
lradius 23.160078942524283
lwrist 4.585553818415201
lhand -28.810322069769818 23.270339468754578
lfingers nan
lthumb -1.7717912242906662 53.90924350275807
rclavicle -4.615390218988153e-15 -2.701046601025668e-15
rhumerus -19.05612789970744 -10.09650831189319 -81.67926805824709
rradius 31.855163002876733
rwrist 0.1087081629775204
rhand -19.348552022223185 nan
rfingers nan
rthumb 6.9599699589196184 -5.303153354765338
50
root 0.372051210242204 17.678801821831787 13.859675534293917 -0.8772262279358232 -4.2967653778203685 -5.624319229822274
lfemur -26.85838582273545 -2.6960779304682974 -12.663174581343888
ltibia 21.903145578256623
lfoot -3.7921884400429113 -2.565218038508837
ltoes -2.160665827877828
rfemur 7.645253056582513 4.547369246527085 33.94221171337495
rtibia 32.145229677980545
rfoot -13.800330461470281 -3.4352485913211908
rtoes -5.634683065769816
lowerback nan 1.929613595356695 5.734239241279486
upperback 0.23229795539068873 3.8666813413943313 2.507034783412848
thorax -4.482503195291933 1.7825007508301094 -1.7044900234001323
lowerneck -15.898507927025772 -3.1887350480877292 -0.9386601281555287
upperneck 20.574737837709122 -5.278645030566041 0.8836729721104359
head 9.126339780881091 -2.3046602558576152 0.12855403439265053
lclavicle -6.15804420678337e-15 -3.270390598639872e-15
lhumerus -37.792715941701935 6.868124221944431 82.10128649992484
lradius 21.611643230763846
lwrist 2.878097019706998
lhand -29.693799091073384 21.686932812663024
lfingers nan
lthumb -2.619378011590039 52.655324161308485
rclavicle -5.008698310332705e-15 -3.977065756030803e-15
rhumerus -20.00562591373577 -11.896309933975058 -81.17528624744538
rradius 31.50411137074182
rwrist 1.9031850743035514
rhand -19.38720319369251 nan
rfingers nan
rthumb 6.955038683811765 -5.27731567775912
51
root 0.4234407265326803 17.680634831165793 14.21947860421781 -1.7141980862466464 -4.103263752796834 -4.823866432567096
lfemur -26.101297064256592 -3.3939518342676127 -15.089377822527018
ltibia 25.63046458707784
lfoot -4.199903971666337 -5.360228089543147
ltoes 0.5490289296577258
rfemur 5.426962391248127 2.906780314272386 31.2153276715787
rtibia 38.06788831208649
rfoot -8.58785693344655 -2.0075075390920967
rtoes -6.894345072137798
lowerback nan 1.8353130862165967 4.534110885767559
upperback 0.3109631759330146 3.696045185507563 2.0842920556568902
thorax -5.461561618515818 1.6173909541081495 -1.3481247773368779
lowerneck -15.738179322087657 -3.3295284403735037 -1.062972172475579
upperneck 20.573383657382966 -5.345899241514126 0.9133834515336596
head 9.216789442235992 -2.3356279108259903 0.1766170118354011
lclavicle -4.749557708149169e-15 -1.8319824383560945e-15
lhumerus -38.047399032692 6.751421336776126 82.0083538916189
lradius 20.377833575138904
lwrist 1.2923550089874585
lhand -29.176815313690977 21.962744365052465
lfingers nan
lthumb -2.7742737572012737 51.104923617898436
rclavicle -1.9382908877553575e-15 -2.5526488009437684e-16
rhumerus -21.517659098462023 -14.15141648553663 -80.52225119772335
rradius 31.672481453836895
rwrist 4.220309301335618
rhand -19.736876993058548 nan
rfingers nan
rthumb 6.60204785600513 -5.354662884902327
52
root 0.483410083821788 17.701373189799657 14.549354662294252 -2.3770947266128504 -4.3513409343330975 -4.051334801223517
lfemur -23.753426052166606 -2.1542748723258445 -17.429127311560247
ltibia 30.155021684177164
lfoot -4.948441896950507 -6.135768824493006
ltoes -1.3387449160037415
rfemur 2.6704713246185836 1.2716807803427588 28.66024978921196
rtibia 46.16176141918936
rfoot 0.08743951278428419 -0.2989548931527697
rtoes -2.9423190830806405
lowerback nan 1.6665224644157721 3.57073437245617
upperback 0.361027205879252 3.5164095644248663 1.6980384497375656
thorax -5.758652750600357 1.5054979557484027 -1.263738782961879
lowerneck -15.553731732500257 -3.5049911118518056 -1.3098992173943402
upperneck 20.739630565328106 -5.580828803214526 1.040485602965454
head 9.432312872288358 -2.389775728173526 0.14819658943002317
lclavicle -1.622864665774943e-15 -1.326589694577612e-15
lhumerus -38.12516400578187 6.482781547725655 82.00584360726099
lradius 19.5037041087217
lwrist 0.6395163344715287
lhand -28.80958300505218 23.26215541484389
lfingers nan
lthumb -2.3740672038973107 52.1220865557308
rclavicle -3.2108110450359705e-15 -4.480804102574488e-15
rhumerus -22.554905270549988 -16.49547778348273 -79.67137157663186
rradius 31.646785582468123
rwrist 6.07678716397102
rhand -19.20097783681193 nan
rfingers nan
rthumb 7.026022669977787 -6.138632978544477
53
root 0.5235683368919744 17.734794731397752 13.858963309042876 -3.0461756637018977 -4.891635545472276 -2.881311861404466
lfemur -21.551833258828434 -0.5813981203877172 -18.49743928150057
ltibia 31.83136305448926
lfoot -6.65528410714546 -5.471331895667836
ltoes -1.8918097861238925
rfemur -0.9919364375584987 1.228755564448126 27.68343815717725
rtibia 55.45637838481015
rfoot 11.475407436923092 0.420910951825225
rtoes 4.705477348439634
lowerback nan 1.7229364865451948 3.458843947158288
upperback 0.20197792517626842 3.540097201022135 1.6867050232054668
thorax -5.833508311328131 1.531570712942498 -1.059601103271131
lowerneck -15.236160538272854 -3.4123691625185617 -1.2768881098595097
upperneck 20.688385264157155 -5.396144761176918 1.0818261493968642
head 9.459908419009555 -2.2644718494692166 0.30248311257222943
lclavicle -5.95470917523643e-16 2.5440515391562175e-16
lhumerus -37.91443216850025 6.440383682702469 81.8649962491685
lradius 19.26865676382667
lwrist 1.0035927975055263
lhand -28.171314968389055 25.145540011231446
lfingers nan
lthumb -2.024006801865485 53.893200171461686
rclavicle -8.347386070028146e-16 -1.882875900461875e-15
rhumerus -23.37503375914376 -18.5448837208438 -78.77383942594545
rradius 30.824429296626498
rwrist 7.528365631892296
rhand -18.77232836374068 nan
rfingers nan
rthumb 7.107004330467335 -6.3125759902537695
